<svg width="124" height="126" viewBox="0 0 124 126" fill="none" xmlns="http://www.w3.org/2000/svg">
    <g filter="url(#filter0_d_4_20)">
        <ellipse cx="62.075" cy="60.75" rx="60.075" ry="60.75" fill="#1B7C30"/>
    </g>
    <g filter="url(#filter1_d_4_20)">
        <path d="M24.95 47.25L62.6521 117L99.2 47.25" stroke="white" stroke-width="2.7" stroke-linecap="round"/>
    </g>
    <g filter="url(#filter2_d_4_20)">
        <path d="M24.95 35.55L62.6521 105.3L99.2 35.55" stroke="white" stroke-width="2.7" stroke-linecap="round"/>
    </g>
    <g filter="url(#filter3_d_4_20)">
        <path d="M24.95 23.4L62.6521 93.6L99.2 23.4" stroke="white" stroke-width="2.7" stroke-linecap="round"/>
    </g>
    <g style="mix-blend-mode:luminosity" filter="url(#filter4_d_4_20)">
        <path d="M50.7341 24.29C49.9841 24.29 49.3811 24.194 48.9251 24.002V23.138C49.1831 23.234 49.4591 23.312 49.7531 23.372C50.0531 23.432 50.3501 23.462 50.6441 23.462C51.1061 23.462 51.4511 23.408 51.6791 23.3C51.9131 23.192 52.0301 22.976 52.0301 22.652C52.0301 22.454 51.9821 22.295 51.8861 22.175C51.7901 22.055 51.6311 21.953 51.4091 21.869C51.1871 21.779 50.8811 21.686 50.4911 21.59C49.8671 21.428 49.4291 21.224 49.1771 20.978C48.9251 20.726 48.7991 20.381 48.7991 19.943C48.7991 19.433 48.9851 19.034 49.3571 18.746C49.7291 18.458 50.2841 18.314 51.0221 18.314C51.3581 18.314 51.6731 18.338 51.9671 18.386C52.2671 18.434 52.5011 18.488 52.6691 18.548V19.412C52.2131 19.238 51.7091 19.151 51.1571 19.151C50.7251 19.151 50.3891 19.208 50.1491 19.322C49.9091 19.436 49.7891 19.643 49.7891 19.943C49.7891 20.117 49.8311 20.258 49.9151 20.366C49.9991 20.474 50.1431 20.567 50.3471 20.645C50.5571 20.723 50.8451 20.81 51.2111 20.906C51.6851 21.026 52.0511 21.17 52.3091 21.338C52.5731 21.5 52.7561 21.692 52.8581 21.914C52.9661 22.13 53.0201 22.376 53.0201 22.652C53.0201 23.162 52.8311 23.564 52.4531 23.858C52.0751 24.146 51.5021 24.29 50.7341 24.29ZM53.9713 24.2V18.404H56.5543C56.9983 18.404 57.3643 18.488 57.6523 18.656C57.9403 18.824 58.1533 19.055 58.2913 19.349C58.4293 19.637 58.4983 19.967 58.4983 20.339C58.4983 20.915 58.3183 21.377 57.9583 21.725C57.6043 22.073 57.1243 22.247 56.5183 22.247H54.9523V24.2H53.9713ZM54.9523 21.473H56.3383C56.7283 21.473 57.0223 21.371 57.2203 21.167C57.4183 20.963 57.5173 20.687 57.5173 20.339C57.5173 19.967 57.4213 19.679 57.2293 19.475C57.0433 19.271 56.7613 19.169 56.3833 19.169H54.9523V21.473ZM61.8449 24.29C60.9269 24.29 60.2399 24.05 59.7839 23.57C59.3279 23.084 59.0999 22.334 59.0999 21.32C59.0999 20.264 59.3279 19.499 59.7839 19.025C60.2399 18.551 60.9269 18.314 61.8449 18.314C62.7689 18.314 63.4559 18.551 63.9059 19.025C64.3619 19.499 64.5899 20.264 64.5899 21.32C64.5899 22.334 64.3619 23.084 63.9059 23.57C63.4559 24.05 62.7689 24.29 61.8449 24.29ZM61.8449 23.462C62.4509 23.462 62.8949 23.297 63.1769 22.967C63.4649 22.631 63.6089 22.082 63.6089 21.32C63.6089 20.516 63.4649 19.955 63.1769 19.637C62.8949 19.313 62.4509 19.151 61.8449 19.151C61.2449 19.151 60.8009 19.313 60.5129 19.637C60.2309 19.955 60.0899 20.516 60.0899 21.32C60.0899 22.082 60.2309 22.631 60.5129 22.967C60.8009 23.297 61.2449 23.462 61.8449 23.462ZM65.5465 24.2V18.404H68.2105C68.8585 18.404 69.3295 18.572 69.6235 18.908C69.9235 19.238 70.0735 19.688 70.0735 20.258C70.0735 20.666 69.9715 21.014 69.7675 21.302C69.5635 21.59 69.2695 21.791 68.8855 21.905C68.9935 21.983 69.0775 22.067 69.1375 22.157C69.1975 22.247 69.2575 22.367 69.3175 22.517L70.0465 24.2H69.0385L68.3275 22.58C68.2615 22.424 68.1805 22.313 68.0845 22.247C67.9945 22.181 67.8385 22.148 67.6165 22.148H66.5275V24.2H65.5465ZM66.5275 21.356H67.9495C68.3035 21.356 68.5825 21.269 68.7865 21.095C68.9905 20.921 69.0925 20.642 69.0925 20.258C69.0925 19.532 68.7415 19.169 68.0395 19.169H66.5275V21.356ZM72.5427 24.2V19.169H70.6887V18.404H75.3687V19.169H73.5237V24.2H72.5427ZM36.3927 33.2L34.1787 27.404H35.1957L36.9327 32.147L38.6697 27.404H39.6867L37.4907 33.2H36.3927ZM42.8561 33.29C41.9381 33.29 41.2511 33.05 40.7951 32.57C40.3391 32.084 40.1111 31.334 40.1111 30.32C40.1111 29.264 40.3391 28.499 40.7951 28.025C41.2511 27.551 41.9381 27.314 42.8561 27.314C43.7801 27.314 44.4671 27.551 44.9171 28.025C45.3731 28.499 45.6011 29.264 45.6011 30.32C45.6011 31.334 45.3731 32.084 44.9171 32.57C44.4671 33.05 43.7801 33.29 42.8561 33.29ZM42.8561 32.462C43.4621 32.462 43.9061 32.297 44.1881 31.967C44.4761 31.631 44.6201 31.082 44.6201 30.32C44.6201 29.516 44.4761 28.955 44.1881 28.637C43.9061 28.313 43.4621 28.151 42.8561 28.151C42.2561 28.151 41.8121 28.313 41.5241 28.637C41.2421 28.955 41.1011 29.516 41.1011 30.32C41.1011 31.082 41.2421 31.631 41.5241 31.967C41.8121 32.297 42.2561 32.462 42.8561 32.462ZM48.1369 33.29C47.3869 33.29 46.7839 33.194 46.3279 33.002V32.138C46.5859 32.234 46.8619 32.312 47.1559 32.372C47.4559 32.432 47.7529 32.462 48.0469 32.462C48.5089 32.462 48.8539 32.408 49.0819 32.3C49.3159 32.192 49.4329 31.976 49.4329 31.652C49.4329 31.454 49.3849 31.295 49.2889 31.175C49.1929 31.055 49.0339 30.953 48.8119 30.869C48.5899 30.779 48.2839 30.686 47.8939 30.59C47.2699 30.428 46.8319 30.224 46.5799 29.978C46.3279 29.726 46.2019 29.381 46.2019 28.943C46.2019 28.433 46.3879 28.034 46.7599 27.746C47.1319 27.458 47.6869 27.314 48.4249 27.314C48.7609 27.314 49.0759 27.338 49.3699 27.386C49.6699 27.434 49.9039 27.488 50.0719 27.548V28.412C49.6159 28.238 49.1119 28.151 48.5599 28.151C48.1279 28.151 47.7919 28.208 47.5519 28.322C47.3119 28.436 47.1919 28.643 47.1919 28.943C47.1919 29.117 47.2339 29.258 47.3179 29.366C47.4019 29.474 47.5459 29.567 47.7499 29.645C47.9599 29.723 48.2479 29.81 48.6139 29.906C49.0879 30.026 49.4539 30.17 49.7119 30.338C49.9759 30.5 50.1589 30.692 50.2609 30.914C50.3689 31.13 50.4229 31.376 50.4229 31.652C50.4229 32.162 50.2339 32.564 49.8559 32.858C49.4779 33.146 48.9049 33.29 48.1369 33.29ZM52.5168 33.2V28.169H50.6628V27.404H55.3428V28.169H53.4978V33.2H52.5168ZM58.6061 33.29C57.6881 33.29 57.0011 33.05 56.5451 32.57C56.0891 32.084 55.8611 31.334 55.8611 30.32C55.8611 29.264 56.0891 28.499 56.5451 28.025C57.0011 27.551 57.6881 27.314 58.6061 27.314C59.5301 27.314 60.2171 27.551 60.6671 28.025C61.1231 28.499 61.3511 29.264 61.3511 30.32C61.3511 31.334 61.1231 32.084 60.6671 32.57C60.2171 33.05 59.5301 33.29 58.6061 33.29ZM58.6061 32.462C59.2121 32.462 59.6561 32.297 59.9381 31.967C60.2261 31.631 60.3701 31.082 60.3701 30.32C60.3701 29.516 60.2261 28.955 59.9381 28.637C59.6561 28.313 59.2121 28.151 58.6061 28.151C58.0061 28.151 57.5621 28.313 57.2741 28.637C56.9921 28.955 56.8511 29.516 56.8511 30.32C56.8511 31.082 56.9921 31.631 57.2741 31.967C57.5621 32.297 58.0061 32.462 58.6061 32.462ZM65.0257 33.29C64.0717 33.29 63.3487 33.029 62.8567 32.507C62.3707 31.985 62.1277 31.28 62.1277 30.392C62.1277 29.756 62.2297 29.21 62.4337 28.754C62.6437 28.292 62.9617 27.938 63.3877 27.692C63.8137 27.44 64.3567 27.314 65.0167 27.314C65.3527 27.314 65.6587 27.341 65.9347 27.395C66.2167 27.443 66.4777 27.509 66.7177 27.593V28.448C66.4777 28.352 66.2197 28.28 65.9437 28.232C65.6737 28.178 65.3887 28.151 65.0887 28.151C64.3687 28.151 63.8587 28.343 63.5587 28.727C63.2647 29.111 63.1177 29.666 63.1177 30.392C63.1177 31.07 63.2797 31.586 63.6037 31.94C63.9277 32.288 64.4287 32.462 65.1067 32.462C65.3827 32.462 65.6587 32.441 65.9347 32.399C66.2167 32.351 66.4807 32.279 66.7267 32.183V33.047C66.4867 33.125 66.2257 33.185 65.9437 33.227C65.6677 33.269 65.3617 33.29 65.0257 33.29ZM67.6778 33.2V27.404H68.6588V29.924H71.4488V27.404H72.4298V33.2H71.4488V30.68H68.6588V33.2H67.6778ZM73.5665 33.2V27.404H74.4305L77.4545 31.67V27.404H78.4265V33.2H77.5625L74.5475 28.943V33.2H73.5665ZM82.1344 33.29C81.2164 33.29 80.5294 33.05 80.0734 32.57C79.6174 32.084 79.3894 31.334 79.3894 30.32C79.3894 29.264 79.6174 28.499 80.0734 28.025C80.5294 27.551 81.2164 27.314 82.1344 27.314C83.0584 27.314 83.7454 27.551 84.1954 28.025C84.6514 28.499 84.8794 29.264 84.8794 30.32C84.8794 31.334 84.6514 32.084 84.1954 32.57C83.7454 33.05 83.0584 33.29 82.1344 33.29ZM82.1344 32.462C82.7404 32.462 83.1844 32.297 83.4664 31.967C83.7544 31.631 83.8984 31.082 83.8984 30.32C83.8984 29.516 83.7544 28.955 83.4664 28.637C83.1844 28.313 82.7404 28.151 82.1344 28.151C81.5344 28.151 81.0904 28.313 80.8024 28.637C80.5204 28.955 80.3794 29.516 80.3794 30.32C80.3794 31.082 80.5204 31.631 80.8024 31.967C81.0904 32.297 81.5344 32.462 82.1344 32.462ZM85.836 33.2V27.404H89.877V28.169H86.817V29.924H89.544V30.68H86.817V32.444H89.877V33.2H85.836ZM41.1041 42.2V36.404H43.4531C44.3111 36.404 44.9471 36.632 45.3611 37.088C45.7751 37.538 45.9821 38.288 45.9821 39.338C45.9821 40.328 45.7781 41.054 45.3701 41.516C44.9621 41.972 44.3231 42.2 43.4531 42.2H41.1041ZM42.0851 41.444H43.3001C43.6781 41.444 43.9931 41.39 44.2451 41.282C44.4971 41.168 44.6861 40.958 44.8121 40.652C44.9381 40.346 45.0011 39.908 45.0011 39.338C45.0011 38.768 44.9441 38.327 44.8301 38.015C44.7161 37.703 44.5331 37.484 44.2811 37.358C44.0351 37.232 43.7081 37.169 43.3001 37.169H42.0851V41.444ZM46.9488 42.2V36.404H50.9898V37.169H47.9298V38.924H50.6568V39.68H47.9298V41.444H50.9898V42.2H46.9488ZM54.5092 42.29C53.5552 42.29 52.8352 42.032 52.3492 41.516C51.8692 41 51.6292 40.301 51.6292 39.419C51.6292 38.783 51.7342 38.234 51.9442 37.772C52.1542 37.304 52.4722 36.944 52.8982 36.692C53.3302 36.44 53.8762 36.314 54.5362 36.314C54.8782 36.314 55.1872 36.338 55.4632 36.386C55.7452 36.428 56.0092 36.491 56.2552 36.575V37.421C55.7632 37.241 55.2172 37.151 54.6172 37.151C53.8792 37.151 53.3602 37.346 53.0602 37.736C52.7662 38.126 52.6192 38.687 52.6192 39.419C52.6192 40.085 52.7752 40.592 53.0872 40.94C53.3992 41.288 53.8822 41.462 54.5362 41.462C55.0522 41.462 55.4692 41.402 55.7872 41.282V39.662H54.3382V39.023H56.6242V41.813C56.4382 41.933 56.1712 42.044 55.8232 42.146C55.4812 42.242 55.0432 42.29 54.5092 42.29ZM60.0498 42.29C59.2518 42.29 58.6308 42.098 58.1868 41.714C57.7488 41.33 57.5298 40.775 57.5298 40.049V36.404H58.5108V40.013C58.5108 40.499 58.6428 40.862 58.9068 41.102C59.1768 41.342 59.5578 41.462 60.0498 41.462C60.5358 41.462 60.9108 41.342 61.1748 41.102C61.4448 40.862 61.5798 40.499 61.5798 40.013V36.404H62.5518V40.049C62.5518 40.775 62.3328 41.33 61.8948 41.714C61.4568 42.098 60.8418 42.29 60.0498 42.29ZM63.6393 42.2V36.404H64.5033L67.5273 40.67V36.404H68.4993V42.2H67.6353L64.6203 37.943V42.2H63.6393ZM69.6422 42.2V36.404H70.6232V42.2H69.6422ZM71.7604 42.2V36.404H72.6244L75.6484 40.67V36.404H76.6204V42.2H75.7564L72.7414 37.943V42.2H71.7604ZM80.3283 42.29C79.4103 42.29 78.7233 42.05 78.2673 41.57C77.8113 41.084 77.5833 40.334 77.5833 39.32C77.5833 38.264 77.8113 37.499 78.2673 37.025C78.7233 36.551 79.4103 36.314 80.3283 36.314C81.2523 36.314 81.9393 36.551 82.3893 37.025C82.8453 37.499 83.0733 38.264 83.0733 39.32C83.0733 40.334 82.8453 41.084 82.3893 41.57C81.9393 42.05 81.2523 42.29 80.3283 42.29ZM80.3283 41.462C80.9343 41.462 81.3783 41.297 81.6603 40.967C81.9483 40.631 82.0923 40.082 82.0923 39.32C82.0923 38.516 81.9483 37.955 81.6603 37.637C81.3783 37.313 80.9343 37.151 80.3283 37.151C79.7283 37.151 79.2843 37.313 78.9963 37.637C78.7143 37.955 78.5733 38.516 78.5733 39.32C78.5733 40.082 78.7143 40.631 78.9963 40.967C79.2843 41.297 79.7283 41.462 80.3283 41.462Z" fill="white"/>
    </g>
    <defs>
        <filter id="filter0_d_4_20" x="0.2" y="0" width="123.75" height="125.1" filterUnits="userSpaceOnUse" color-interpolation-filters="sRGB">
            <feFlood flood-opacity="0" result="BackgroundImageFix"/>
            <feColorMatrix in="SourceAlpha" type="matrix" values="0 0 0 0 0 0 0 0 0 0 0 0 0 0 0 0 0 0 127 0" result="hardAlpha"/>
            <feOffset dy="1.8"/>
            <feGaussianBlur stdDeviation="0.9"/>
            <feComposite in2="hardAlpha" operator="out"/>
            <feColorMatrix type="matrix" values="0 0 0 0 0 0 0 0 0 0 0 0 0 0 0 0 0 0 0.25 0"/>
            <feBlend mode="normal" in2="BackgroundImageFix" result="effect1_dropShadow_4_20"/>
            <feBlend mode="normal" in="SourceGraphic" in2="effect1_dropShadow_4_20" result="shape"/>
        </filter>
        <filter id="filter1_d_4_20" x="21.7997" y="45.8997" width="80.5506" height="77.5736" filterUnits="userSpaceOnUse" color-interpolation-filters="sRGB">
            <feFlood flood-opacity="0" result="BackgroundImageFix"/>
            <feColorMatrix in="SourceAlpha" type="matrix" values="0 0 0 0 0 0 0 0 0 0 0 0 0 0 0 0 0 0 127 0" result="hardAlpha"/>
            <feOffset dy="1.8"/>
            <feGaussianBlur stdDeviation="0.9"/>
            <feComposite in2="hardAlpha" operator="out"/>
            <feColorMatrix type="matrix" values="0 0 0 0 0 0 0 0 0 0 0 0 0 0 0 0 0 0 0.25 0"/>
            <feBlend mode="normal" in2="BackgroundImageFix" result="effect1_dropShadow_4_20"/>
            <feBlend mode="normal" in="SourceGraphic" in2="effect1_dropShadow_4_20" result="shape"/>
        </filter>
        <filter id="filter2_d_4_20" x="21.7997" y="34.1997" width="80.5506" height="77.5736" filterUnits="userSpaceOnUse" color-interpolation-filters="sRGB">
            <feFlood flood-opacity="0" result="BackgroundImageFix"/>
            <feColorMatrix in="SourceAlpha" type="matrix" values="0 0 0 0 0 0 0 0 0 0 0 0 0 0 0 0 0 0 127 0" result="hardAlpha"/>
            <feOffset dy="1.8"/>
            <feGaussianBlur stdDeviation="0.9"/>
            <feComposite in2="hardAlpha" operator="out"/>
            <feColorMatrix type="matrix" values="0 0 0 0 0 0 0 0 0 0 0 0 0 0 0 0 0 0 0.25 0"/>
            <feBlend mode="normal" in2="BackgroundImageFix" result="effect1_dropShadow_4_20"/>
            <feBlend mode="normal" in="SourceGraphic" in2="effect1_dropShadow_4_20" result="shape"/>
        </filter>
        <filter id="filter3_d_4_20" x="21.7997" y="22.0497" width="80.5506" height="78.038" filterUnits="userSpaceOnUse" color-interpolation-filters="sRGB">
            <feFlood flood-opacity="0" result="BackgroundImageFix"/>
            <feColorMatrix in="SourceAlpha" type="matrix" values="0 0 0 0 0 0 0 0 0 0 0 0 0 0 0 0 0 0 127 0" result="hardAlpha"/>
            <feOffset dy="1.8"/>
            <feGaussianBlur stdDeviation="0.9"/>
            <feComposite in2="hardAlpha" operator="out"/>
            <feColorMatrix type="matrix" values="0 0 0 0 0 0 0 0 0 0 0 0 0 0 0 0 0 0 0.25 0"/>
            <feBlend mode="normal" in2="BackgroundImageFix" result="effect1_dropShadow_4_20"/>
            <feBlend mode="normal" in="SourceGraphic" in2="effect1_dropShadow_4_20" result="shape"/>
        </filter>
        <filter id="filter4_d_4_20" x="32.3787" y="18.314" width="59.2984" height="27.576" filterUnits="userSpaceOnUse" color-interpolation-filters="sRGB">
        <feFlood flood-opacity="0" result="BackgroundImageFix"/>
            <feColorMatrix in="SourceAlpha" type="matrix" values="0 0 0 0 0 0 0 0 0 0 0 0 0 0 0 0 0 0 127 0" result="hardAlpha"/>
            <feOffset dy="1.8"/>
            <feGaussianBlur stdDeviation="0.9"/>
            <feComposite in2="hardAlpha" operator="out"/>
            <feColorMatrix type="matrix" values="0 0 0 0 0 0 0 0 0 0 0 0 0 0 0 0 0 0 0.25 0"/>
            <feBlend mode="normal" in2="BackgroundImageFix" result="effect1_dropShadow_4_20"/>
            <feBlend mode="normal" in="SourceGraphic" in2="effect1_dropShadow_4_20" result="shape"/>
        </filter>
    </defs>
</svg>
